<?xml version="1.0" encoding="utf-8"?>
<!-- Generator: Adobe Illustrator 27.3.1, SVG Export Plug-In . SVG Version: 6.00 Build 0)  -->
<svg version="1.1" id="Layer_1" xmlns="http://www.w3.org/2000/svg" xmlns:xlink="http://www.w3.org/1999/xlink" x="0px" y="0px"
	 viewBox="0 0 152.04 57.01" style="enable-background:new 0 0 152.04 57.01;" xml:space="preserve">
<style type="text/css">
	.st0{fill:#231F20;}
</style>
<g>
	<polyline class="st0" points="141.88,42.76 116.21,41.44 90.55,42.76 116.21,44.09 	"/>
	<path class="st0" d="M17.29,5.2c0.86,0.13,1.7,0.34,2.49,0.65c1.18,0.45,2.21,1.1,3.04,1.92c0.9,0.9,1.5,1.95,1.83,3.06
		c0.3,1.07,0.62,3.48-0.21,4.54c-0.34,0.43-0.94,0.57-1.48,0.4c-0.56-0.18-0.94-0.68-1.02-1.25c-0.11-0.89,0.58-1.76,0.6-3.27
		c-0.02-0.8-0.24-1.68-0.78-2.55c-0.51-0.81-1.27-1.55-2.3-2.13c-0.73-0.41-1.55-0.71-2.42-0.9c-0.97-0.21-1.91-0.27-2.93-0.23
		c-0.83,0.04-1.62,0.18-2.34,0.4c-1.11,0.35-2.01,0.9-2.69,1.58c-2.27,2.34-2.1,4.6-0.46,6.58c2.26,2.57,7.78,4.34,11.51,6.48
		c1.09,0.61,2.19,1.31,3.14,2.13c0.91,0.78,1.72,1.7,2.28,2.77c0.27,0.52,0.48,1.08,0.61,1.68c0.57,3.1-0.33,6.15-3.49,8.79
		c-1.95,1.54-4.54,2.37-7.31,2.33h-0.03c-1.28-0.02-2.71-0.24-4.11-0.78c-1.27-0.49-2.41-1.22-3.31-2.17
		c-0.99-1.05-1.59-2.26-1.88-3.52c-0.39-1.75-0.11-3.34,0.04-4.05c0.08-0.36,0.16-0.65,0.18-0.73l0.36,0.11
		c-0.02,0.08-0.1,0.36-0.17,0.7c-0.15,0.69-0.43,2.21-0.07,3.89c0.26,1.2,0.83,2.36,1.77,3.37c0.86,0.91,1.96,1.61,3.19,2.07
		c1.36,0.51,2.75,0.69,3.99,0.67h0.03c2.69-0.06,5.08-1.03,6.74-2.59c2.34-2.24,3.01-5.81,0.92-8.28c-2.59-2.9-7.99-5.05-11.1-6.82
		c-2.15-1.22-4.15-2.45-5.46-4.83c-0.88-1.61-0.94-3.67,0.14-5.98c0.47-0.9,1.14-1.72,2-2.38c0.85-0.65,1.86-1.14,3.04-1.45
		c0.91-0.23,2.06-0.37,3.07-0.37C15.57,5.01,16.42,5.08,17.29,5.2"/>
	<path class="st0" d="M37.95,23.91c-0.34-1.27,0.09-3.34,1.69-5.08c1.39-1.52,3.31-2.33,5.62-2.33c2.49-0.02,5.48,1.01,6.74,3.78
		c0.54,1.17,0.72,2.68,0.72,4.2v9.92c0,2.46,0.93,3.31,1.93,3.8h-1.93h-2.98v-3.6c-0.04,0.11-0.09,0.22-0.14,0.33
		c-0.3,0.63-0.74,1.21-1.31,1.71c-0.58,0.51-1.23,0.88-1.86,1.15c-0.43,0.18-0.84,0.31-1.17,0.4c-0.34,0.1-0.68,0.17-0.99,0.23
		c-0.77,0.14-1.55,0.19-2.26,0.15c-0.2-0.01-0.4-0.03-0.61-0.06c-0.54-0.08-1.09-0.19-1.62-0.38c-1.86-0.7-2.84-2.16-2.88-4.3
		c0-0.97,0.2-1.84,0.61-2.67l0.03-0.07c0.39-0.75,0.98-1.39,1.75-1.91c0.65-0.44,1.38-0.79,2.18-1.12c0.18-0.07,0.36-0.15,0.54-0.22
		c0.54-0.21,1.01-0.39,1.73-0.65c0.67-0.24,1.52-0.54,2.23-0.83c0.72-0.29,1.37-0.59,1.93-0.93c0.29-0.18,0.54-0.37,0.76-0.56
		c0.24-0.21,0.43-0.43,0.57-0.65c0.18-0.26,0.29-0.52,0.36-0.75c0.09-0.28,0.11-0.53,0.12-0.65c0.04-0.51-0.04-1.19-0.11-1.68
		c-0.1-0.69-0.31-1.37-0.66-2c-0.35-0.62-0.82-1.14-1.41-1.54c-0.75-0.49-1.5-0.73-2.26-0.73c-1.65,0-3.83,0.78-4.38,2.18
		c-0.53,1.34-0.31,2.11-0.15,3.1c0.1,0.62,0.21,1.36-0.07,1.96c-0.25,0.49-0.74,0.82-1.31,0.82C38.7,24.92,38.11,24.51,37.95,23.91
		L37.95,23.91z M49.5,24.42c-0.17,0.24-0.37,0.47-0.63,0.7c-0.23,0.21-0.5,0.4-0.8,0.59c-0.58,0.36-1.24,0.67-1.96,0.98
		c-0.74,0.32-1.51,0.62-2.19,0.92c-0.65,0.29-1.18,0.55-1.62,0.82c-0.16,0.1-0.32,0.2-0.47,0.31c-0.68,0.48-1.18,1-1.54,1.53
		c-0.41,0.62-0.58,1.19-0.69,1.69l-0.01,0.04c-0.31,1.59,0.01,3.11,1.12,4.42c0.29,0.28,0.64,0.52,1.05,0.71
		c0.16,0.07,0.31,0.13,0.47,0.19c0.58,0.2,1.24,0.33,1.97,0.32c0.29,0,0.6-0.02,0.93-0.07c0.31-0.05,0.7-0.13,1.11-0.28
		c0.6-0.21,1.22-0.53,1.77-0.98c0.55-0.45,0.96-0.98,1.25-1.55c0.54-1.14,0.51-2.8,0.48-4.31v-6.41
		C49.67,24.15,49.58,24.29,49.5,24.42"/>
	<path class="st0" d="M59.25,16.49c-1,0.49-1.33,1.84-0.7,3.82l5.49,17.26l5.48-17.26c0.63-1.98,0.94-3.33-0.06-3.82h2.83
		c-1,0.49-1.57,1.27-2.38,3.8l-4.25,13.37h0l-1.16,3.65c-0.25,0.77-0.41,1.34-0.73,2.05c-1.87,4.71-4,7.85-6.12,9.79
		c-2.28,2.09-4.57,2.81-6.49,2.63c-3.39-0.38-5.96-3.27-5.2-6.73c0.23-1.02,0.58-1.94,1.68-1.95c0.82-0.01,1.48,0.68,1.48,1.53
		c0,0.54-0.28,0.93-0.54,1.41c-0.44,0.76-0.89,1.41-0.89,2.5c0,1.46,1.39,2.59,3.5,2.87c1.81,0.17,3.99-0.5,6.22-2.54
		c2.21-2.03,4.47-5.42,6.42-10.69H61.1l-5.69-17.9c-0.8-2.53-1.35-3.31-2.35-3.8H59.25z"/>
	<path class="st0" d="M78.59,15.74h5.33v1.09h-5.33v23.63c0,2.46,0.93,3.31,1.93,3.8h-1.2c-1.96,0-3.71-1.48-3.71-5.1V16.84h-1.98
		v-1.09h1.98v-0.49c0-4.72-0.14-5.64-1.14-6.13c1.6,0,3.69-1.45,4.12-2.65V15.74z"/>
	<path class="st0" d="M32.11,15.74h5.33v1.09h-5.33v23.63c0,2.46,0.93,3.31,1.93,3.8h-1.2c-1.96,0-3.71-1.48-3.71-5.1V16.84h-1.98
		v-1.09h1.98v-0.49c0-4.72-0.14-5.64-1.14-6.13c1.6,0,3.69-1.45,4.12-2.65V15.74z"/>
	<path class="st0" d="M94.3,16.46c2.58-0.01,5.58,0.72,6.98,2.77c1.25,1.91,1.16,4.35-0.03,6.14c-0.55,0.81-1.28,1.36-2.02,1.77
		c-0.52,0.29-1.09,0.54-1.71,0.78c-0.19,0.08-0.4,0.15-0.61,0.23c-0.77,0.27-1.57,0.5-2.46,0.75c-0.84,0.23-1.66,0.46-2.44,0.72
		c-0.85,0.28-1.58,0.58-2.21,0.92c-0.29,0.16-0.54,0.32-0.76,0.48c-0.36,0.26-0.68,0.56-0.95,0.88c-0.16,0.2-0.3,0.4-0.42,0.61
		c0.34,1.02,0.8,1.9,1.39,2.66c0.63,0.8,1.38,1.43,2.19,1.86c0.48,0.26,0.97,0.44,1.45,0.56c0.42,0.1,0.82,0.15,1.21,0.17
		c2.2,0.07,3.97-0.6,5.27-1.52c0.17-0.12,0.34-0.25,0.51-0.4c0.65-0.56,1.2-1.24,1.57-2.01c0.57-1.16,0.54-2.15,0.54-2.28v-0.02
		h0.37v0.02c0,0.15,0.02,1.21-0.58,2.45c-0.4,0.82-0.97,1.54-1.65,2.14c-0.18,0.16-0.36,0.3-0.53,0.43c-1.36,1-3.23,1.62-5.49,1.69
		c-0.41,0.02-0.85,0.01-1.31-0.03c-0.52-0.05-1.09-0.13-1.68-0.27c-0.98-0.24-2.05-0.66-3.07-1.4c-1-0.72-1.91-1.71-2.6-3.01
		c-0.73-1.36-1.17-2.97-1.27-4.72v-0.01c-0.14-2.56,0.26-4.72,1.02-6.45c0.79-1.8,1.9-3.01,2.99-3.82
		C89.61,17.33,91.44,16.46,94.3,16.46 M93,17c-1.63,0.43-3.18,1.62-3.97,2.66c-0.7,0.91-1.3,2.07-1.67,3.56
		c-0.36,1.44-0.52,3.19-0.38,5.37v0.01c0.09,1.29,0.27,2.43,0.57,3.46c0.09-0.14,0.19-0.27,0.3-0.4c0.29-0.35,0.62-0.67,0.98-0.97
		c0.23-0.18,0.48-0.37,0.77-0.56c0.63-0.41,1.35-0.78,2.2-1.16c0.78-0.35,1.57-0.66,2.38-1c0.84-0.35,1.58-0.68,2.25-1.05
		c0.18-0.1,0.35-0.2,0.51-0.3c0.51-0.32,0.9-0.67,1.22-1.01c0.77-0.85,1.25-2.16,1.25-3.57C99.38,18.59,96.34,16.22,93,17"/>
	<path class="st0" d="M115.28,16.46c2.58-0.01,5.58,0.72,6.98,2.77c1.25,1.91,1.16,4.35-0.03,6.14c-0.55,0.81-1.28,1.36-2.01,1.77
		c-0.52,0.29-1.1,0.54-1.72,0.78c-0.19,0.08-0.4,0.15-0.61,0.23c-0.77,0.27-1.57,0.5-2.46,0.75c-0.84,0.23-1.66,0.46-2.44,0.72
		c-0.86,0.28-1.58,0.58-2.21,0.92c-0.29,0.16-0.54,0.32-0.76,0.48c-0.36,0.26-0.68,0.56-0.95,0.88c-0.16,0.2-0.3,0.4-0.42,0.61
		c0.34,1.02,0.8,1.9,1.39,2.66c0.63,0.8,1.38,1.43,2.19,1.86c0.48,0.26,0.97,0.44,1.45,0.56c0.42,0.1,0.82,0.15,1.21,0.17
		c2.2,0.07,3.97-0.6,5.27-1.52c0.17-0.12,0.34-0.25,0.51-0.4c0.65-0.56,1.2-1.24,1.57-2.01c0.57-1.16,0.54-2.15,0.54-2.28v-0.02
		h0.37v0.02c0,0.15,0.02,1.21-0.58,2.45c-0.4,0.82-0.97,1.54-1.65,2.14c-0.18,0.16-0.36,0.3-0.54,0.43c-1.36,1-3.23,1.62-5.49,1.69
		c-0.41,0.02-0.85,0.01-1.31-0.03c-0.52-0.05-1.09-0.13-1.68-0.27c-0.98-0.24-2.05-0.66-3.07-1.4c-1-0.72-1.91-1.71-2.6-3.01
		c-0.73-1.36-1.17-2.97-1.27-4.72v-0.01c-0.14-2.56,0.26-4.72,1.02-6.45c0.79-1.8,1.9-3.01,2.99-3.82
		C110.59,17.33,112.41,16.46,115.28,16.46 M113.97,17c-1.63,0.43-3.18,1.62-3.97,2.66c-0.7,0.91-1.3,2.07-1.67,3.56
		c-0.36,1.44-0.52,3.19-0.38,5.37v0.01c0.09,1.29,0.27,2.43,0.57,3.46c0.09-0.14,0.19-0.27,0.3-0.4c0.29-0.35,0.62-0.67,0.98-0.97
		c0.23-0.18,0.48-0.37,0.77-0.56c0.63-0.41,1.35-0.78,2.2-1.16c0.78-0.35,1.57-0.66,2.38-1c0.84-0.35,1.58-0.68,2.24-1.05
		c0.18-0.1,0.35-0.2,0.51-0.3c0.51-0.32,0.9-0.67,1.22-1.01c0.77-0.85,1.25-2.16,1.25-3.57C120.36,18.59,117.32,16.22,113.97,17"/>
	<path class="st0" d="M136.82,16.42c0.58,0,1.29,0.05,2.08,0.26c0.84,0.23,1.71,0.62,2.53,1.27c2.08,1.66,2.88,3.81,2.88,7.13v9.31
		c0,2.46,0.93,3.31,1.93,3.8h-4.92V24.92c0-3.85-1.12-7.88-5.36-7.88c-0.56,0.03-1.33,0.15-2.18,0.56
		c-0.72,0.35-1.41,0.86-2.01,1.54c-0.6,0.68-1.05,1.46-1.35,2.25c-0.38,1.01-0.5,2.22-0.5,3.46v9.53c0,2.46,0.93,3.31,1.93,3.8
		h-6.85c1-0.49,1.93-1.34,1.93-3.8v-9.12c0-4.72-0.14-5.64-1.14-6.13c1.6,0,3.69-1.46,4.12-2.65v3.45v1.68
		c0.04-0.12,0.08-0.25,0.13-0.38c0.3-0.84,0.75-1.67,1.38-2.42c0.63-0.75,1.36-1.33,2.13-1.72c0.92-0.47,1.76-0.62,2.38-0.65
		c0.11-0.01,0.23-0.01,0.35-0.02C136.44,16.42,136.62,16.42,136.82,16.42z"/>
	<path class="st0" d="M86.53,51.39l0.19-0.38c0.32,0.33,0.9,0.57,1.49,0.57c0.85,0,1.21-0.37,1.21-0.83c0-1.28-2.79-0.49-2.79-2.22
		c0-0.69,0.52-1.28,1.67-1.28c0.51,0,1.04,0.15,1.4,0.41l-0.16,0.39c-0.39-0.26-0.84-0.39-1.24-0.39c-0.83,0-1.2,0.38-1.2,0.85
		c0,1.28,2.79,0.51,2.79,2.21c0,0.69-0.53,1.28-1.69,1.28C87.53,52,86.86,51.76,86.53,51.39"/>
	<polygon class="st0" points="92.1,50.2 91.3,50.96 91.3,51.96 90.84,51.96 90.84,47.01 91.3,47.01 91.3,50.37 93.33,48.45 
		93.9,48.45 92.44,49.88 94.03,51.96 93.47,51.96 	"/>
	<path class="st0" d="M94.57,47.34c0-0.18,0.15-0.33,0.34-0.33c0.19,0,0.34,0.15,0.34,0.33c0,0.19-0.14,0.35-0.34,0.35
		C94.72,47.68,94.57,47.53,94.57,47.34 M94.67,48.45h0.46v3.51h-0.46V48.45z"/>
	<path class="st0" d="M99.54,49.93v2.04h-0.46v-1.99c0-0.74-0.38-1.12-1.02-1.12c-0.73,0-1.19,0.47-1.19,1.27v1.84h-0.46v-3.51h0.44
		v0.65c0.25-0.43,0.71-0.68,1.29-0.68C98.97,48.42,99.54,48.92,99.54,49.93"/>
	<path class="st0" d="M102.18,49.62c0-1.37,1.01-2.38,2.37-2.38c0.66,0,1.25,0.23,1.66,0.68l-0.3,0.31
		c-0.37-0.39-0.82-0.55-1.34-0.55c-1.09,0-1.91,0.83-1.91,1.94c0,1.11,0.82,1.94,1.91,1.94c0.52,0,0.97-0.17,1.34-0.56l0.3,0.31
		c-0.4,0.45-1,0.69-1.66,0.69C103.19,52,102.18,50.99,102.18,49.62"/>
	<path class="st0" d="M109.65,49.78v2.18h-0.44v-0.55C109,51.77,108.6,52,108.04,52c-0.77,0-1.24-0.41-1.24-1.02
		c0-0.54,0.34-0.99,1.31-0.99h1.08v-0.21c0-0.6-0.33-0.93-0.96-0.93c-0.44,0-0.85,0.16-1.13,0.41l-0.21-0.35
		c0.34-0.3,0.85-0.47,1.38-0.47C109.15,48.42,109.65,48.88,109.65,49.78 M109.19,50.91v-0.57h-1.07c-0.66,0-0.87,0.27-0.87,0.63
		c0,0.41,0.32,0.66,0.86,0.66C108.62,51.62,109.01,51.37,109.19,50.91"/>
	<path class="st0" d="M112.61,48.42v0.46l-0.11-0.01c-0.71,0-1.14,0.47-1.14,1.3v1.79h-0.46v-3.51h0.44v0.69
		C111.55,48.67,111.98,48.42,112.61,48.42"/>
	<path class="st0" d="M116.36,50.35h-2.84c0.05,0.74,0.59,1.22,1.34,1.22c0.41,0,0.78-0.15,1.04-0.46l0.26,0.31
		c-0.3,0.37-0.77,0.57-1.31,0.57c-1.06,0-1.79-0.75-1.79-1.79c0-1.04,0.71-1.78,1.66-1.78s1.65,0.73,1.65,1.78L116.36,50.35z
		 M113.52,50h2.41c-0.06-0.69-0.54-1.17-1.21-1.17C114.06,48.83,113.58,49.31,113.52,50"/>
	<path class="st0" d="M118.66,51.39l0.19-0.38c0.32,0.33,0.9,0.57,1.49,0.57c0.85,0,1.21-0.37,1.21-0.83c0-1.28-2.79-0.49-2.79-2.22
		c0-0.69,0.52-1.28,1.67-1.28c0.51,0,1.04,0.15,1.4,0.41l-0.16,0.39c-0.39-0.26-0.84-0.39-1.24-0.39c-0.83,0-1.2,0.38-1.2,0.85
		c0,1.28,2.79,0.51,2.79,2.21c0,0.69-0.53,1.28-1.69,1.28C119.67,52,119,51.76,118.66,51.39"/>
	<path class="st0" d="M122.63,50.21c0-1.04,0.74-1.78,1.73-1.78c1,0,1.73,0.74,1.73,1.78c0,1.04-0.73,1.79-1.73,1.79
		C123.37,52,122.63,51.25,122.63,50.21 M125.63,50.21c0-0.82-0.54-1.37-1.26-1.37c-0.72,0-1.27,0.55-1.27,1.37
		c0,0.82,0.54,1.37,1.27,1.37C125.09,51.57,125.63,51.03,125.63,50.21"/>
	<rect x="127.03" y="47.01" class="st0" width="0.46" height="4.95"/>
	<path class="st0" d="M131.83,48.45v3.51h-0.44v-0.64c-0.24,0.43-0.68,0.67-1.22,0.67c-0.87,0-1.43-0.5-1.43-1.51v-2.04h0.46v1.99
		c0,0.75,0.38,1.13,1.02,1.13c0.71,0,1.16-0.47,1.16-1.28v-1.84H131.83z"/>
	<path class="st0" d="M134.91,51.75c-0.18,0.17-0.45,0.25-0.72,0.25c-0.64,0-1-0.37-1-1.02v-2.12h-0.61v-0.4h0.61v-0.77h0.46v0.77
		h1.03v0.4h-1.03v2.1c0,0.41,0.21,0.64,0.59,0.64c0.19,0,0.38-0.06,0.5-0.18L134.91,51.75z"/>
	<path class="st0" d="M135.64,47.34c0-0.18,0.15-0.33,0.34-0.33c0.19,0,0.34,0.15,0.34,0.33c0,0.19-0.14,0.35-0.34,0.35
		C135.79,47.68,135.64,47.53,135.64,47.34 M135.74,48.45h0.46v3.51h-0.46V48.45z"/>
	<path class="st0" d="M137.14,50.21c0-1.04,0.74-1.78,1.73-1.78c1,0,1.73,0.74,1.73,1.78c0,1.04-0.73,1.79-1.73,1.79
		C137.88,52,137.14,51.25,137.14,50.21 M140.13,50.21c0-0.82-0.54-1.37-1.26-1.37c-0.73,0-1.27,0.55-1.27,1.37
		c0,0.82,0.54,1.37,1.27,1.37C139.6,51.57,140.13,51.03,140.13,50.21"/>
	<path class="st0" d="M144.67,49.93v2.04h-0.46v-1.99c0-0.74-0.37-1.12-1.02-1.12c-0.73,0-1.19,0.47-1.19,1.27v1.84h-0.46v-3.51
		h0.44v0.65c0.25-0.43,0.71-0.68,1.29-0.68C144.1,48.42,144.67,48.92,144.67,49.93"/>
</g>
</svg>
